<mxfile host="app.diagrams.net" agent="Mozilla/5.0 (Macintosh; Intel Mac OS X 10_15_7) AppleWebKit/605.1.15 (KHTML, like Gecko) Version/18.3 Safari/605.1.15" version="26.0.16" pages="2">
  <diagram name="Nodes" id="xHuSW4IWhRMWUst3tDKI">
    <mxGraphModel dx="1194" dy="799" grid="0" gridSize="10" guides="1" tooltips="1" connect="1" arrows="1" fold="1" page="0" pageScale="1" pageWidth="827" pageHeight="1169" math="0" shadow="0">
      <root>
        <mxCell id="0" />
        <mxCell id="1" parent="0" />
      </root>
    </mxGraphModel>
  </diagram>
  <diagram id="WcyoWNrCj217NDLk2jZd" name="Structure">
    <mxGraphModel dx="2605" dy="1740" grid="0" gridSize="10" guides="1" tooltips="1" connect="1" arrows="1" fold="1" page="0" pageScale="1" pageWidth="827" pageHeight="1169" math="0" shadow="0">
      <root>
        <mxCell id="0" />
        <mxCell id="1" parent="0" />
        <mxCell id="lFQlOqsMQbjmDPC1cxD2-2" value="" style="edgeStyle=none;curved=1;rounded=0;orthogonalLoop=1;jettySize=auto;html=1;fontSize=12;startSize=8;endSize=8;" edge="1" parent="1" source="ITl-ACBuqT6B9tDNnJN2-1" target="lFQlOqsMQbjmDPC1cxD2-1">
          <mxGeometry relative="1" as="geometry" />
        </mxCell>
        <mxCell id="ITl-ACBuqT6B9tDNnJN2-1" value="Depression" style="ellipse;whiteSpace=wrap;html=1;" vertex="1" parent="1">
          <mxGeometry x="-109" y="105" width="120" height="80" as="geometry" />
        </mxCell>
        <mxCell id="lFQlOqsMQbjmDPC1cxD2-1" value="Sucidal" style="ellipse;whiteSpace=wrap;html=1;" vertex="1" parent="1">
          <mxGeometry x="-109" y="301" width="120" height="80" as="geometry" />
        </mxCell>
        <mxCell id="eZCal6oqM1fCCTEyqUuY-2" value="" style="edgeStyle=none;curved=1;rounded=0;orthogonalLoop=1;jettySize=auto;html=1;fontSize=12;startSize=8;endSize=8;" edge="1" parent="1" source="eZCal6oqM1fCCTEyqUuY-1" target="ITl-ACBuqT6B9tDNnJN2-1">
          <mxGeometry relative="1" as="geometry" />
        </mxCell>
        <mxCell id="eZCal6oqM1fCCTEyqUuY-1" value="MentalIllness" style="ellipse;whiteSpace=wrap;html=1;" vertex="1" parent="1">
          <mxGeometry x="74" y="-91" width="120" height="80" as="geometry" />
        </mxCell>
        <mxCell id="yzZGA_0KA8XVbKZ_i8Tn-2" style="edgeStyle=none;curved=1;rounded=0;orthogonalLoop=1;jettySize=auto;html=1;fontSize=12;startSize=8;endSize=8;" edge="1" parent="1" source="yzZGA_0KA8XVbKZ_i8Tn-1" target="ITl-ACBuqT6B9tDNnJN2-1">
          <mxGeometry relative="1" as="geometry" />
        </mxCell>
        <mxCell id="yzZGA_0KA8XVbKZ_i8Tn-1" value="Stress" style="ellipse;whiteSpace=wrap;html=1;strokeColor=light-dark(#000000,#FF0000);" vertex="1" parent="1">
          <mxGeometry x="-109" y="-91" width="120" height="80" as="geometry" />
        </mxCell>
        <mxCell id="syIouRMHXwiDmhJBbLLR-2" value="" style="edgeStyle=none;curved=1;rounded=0;orthogonalLoop=1;jettySize=auto;html=1;fontSize=12;startSize=8;endSize=8;" edge="1" parent="1" source="syIouRMHXwiDmhJBbLLR-1" target="yzZGA_0KA8XVbKZ_i8Tn-1">
          <mxGeometry relative="1" as="geometry" />
        </mxCell>
        <mxCell id="syIouRMHXwiDmhJBbLLR-1" value="FinancialStress" style="ellipse;whiteSpace=wrap;html=1;" vertex="1" parent="1">
          <mxGeometry x="-109" y="-259" width="120" height="80" as="geometry" />
        </mxCell>
        <mxCell id="nojjep5-aE4Lgrpdetyy-2" style="edgeStyle=none;curved=1;rounded=0;orthogonalLoop=1;jettySize=auto;html=1;fontSize=12;startSize=8;endSize=8;" edge="1" parent="1" source="nojjep5-aE4Lgrpdetyy-1" target="yzZGA_0KA8XVbKZ_i8Tn-1">
          <mxGeometry relative="1" as="geometry" />
        </mxCell>
        <mxCell id="nojjep5-aE4Lgrpdetyy-1" value="SleepDuration" style="ellipse;whiteSpace=wrap;html=1;" vertex="1" parent="1">
          <mxGeometry x="-261" y="-259" width="120" height="80" as="geometry" />
        </mxCell>
        <mxCell id="yxkkAYbsik82qOFQB8Uj-2" style="edgeStyle=none;curved=1;rounded=0;orthogonalLoop=1;jettySize=auto;html=1;fontSize=12;startSize=8;endSize=8;entryX=0;entryY=0.5;entryDx=0;entryDy=0;" edge="1" parent="1" source="yxkkAYbsik82qOFQB8Uj-1" target="yzZGA_0KA8XVbKZ_i8Tn-1">
          <mxGeometry relative="1" as="geometry">
            <Array as="points">
              <mxPoint x="-242" y="-93" />
            </Array>
          </mxGeometry>
        </mxCell>
        <mxCell id="yxkkAYbsik82qOFQB8Uj-1" value="DietaryHabits" style="ellipse;whiteSpace=wrap;html=1;" vertex="1" parent="1">
          <mxGeometry x="-413" y="-261" width="120" height="80" as="geometry" />
        </mxCell>
        <mxCell id="k-XJiA40x20d2hjay5rg-2" style="edgeStyle=none;curved=1;rounded=0;orthogonalLoop=1;jettySize=auto;html=1;entryX=0;entryY=1;entryDx=0;entryDy=0;fontSize=12;startSize=8;endSize=8;" edge="1" parent="1" source="k-XJiA40x20d2hjay5rg-1" target="yzZGA_0KA8XVbKZ_i8Tn-1">
          <mxGeometry relative="1" as="geometry">
            <Array as="points">
              <mxPoint x="-315" y="-27" />
            </Array>
          </mxGeometry>
        </mxCell>
        <mxCell id="k-XJiA40x20d2hjay5rg-1" value="AcademicPressure" style="ellipse;whiteSpace=wrap;html=1;" vertex="1" parent="1">
          <mxGeometry x="-565" y="-259" width="120" height="80" as="geometry" />
        </mxCell>
        <mxCell id="DfTlRrW0OWkDcxO0tE6H-1" style="edgeStyle=none;curved=1;rounded=0;orthogonalLoop=1;jettySize=auto;html=1;fontSize=12;startSize=8;endSize=8;" edge="1" parent="1" source="5yAgE6kO6MDElDOg-oXG-1" target="nojjep5-aE4Lgrpdetyy-1">
          <mxGeometry relative="1" as="geometry" />
        </mxCell>
        <mxCell id="bjlW_9jh4lICVOw2gdS2-2" style="edgeStyle=none;curved=1;rounded=0;orthogonalLoop=1;jettySize=auto;html=1;fontSize=12;startSize=8;endSize=8;" edge="1" parent="1" source="5yAgE6kO6MDElDOg-oXG-1" target="bjlW_9jh4lICVOw2gdS2-1">
          <mxGeometry relative="1" as="geometry" />
        </mxCell>
        <mxCell id="5yAgE6kO6MDElDOg-oXG-1" value="StudyHours" style="ellipse;whiteSpace=wrap;html=1;" vertex="1" parent="1">
          <mxGeometry x="-268" y="-648" width="120" height="80" as="geometry" />
        </mxCell>
        <mxCell id="bjlW_9jh4lICVOw2gdS2-3" style="edgeStyle=none;curved=1;rounded=0;orthogonalLoop=1;jettySize=auto;html=1;fontSize=12;startSize=8;endSize=8;" edge="1" parent="1" source="bjlW_9jh4lICVOw2gdS2-1" target="k-XJiA40x20d2hjay5rg-1">
          <mxGeometry relative="1" as="geometry" />
        </mxCell>
        <mxCell id="bjlW_9jh4lICVOw2gdS2-1" value="CGPA" style="ellipse;whiteSpace=wrap;html=1;" vertex="1" parent="1">
          <mxGeometry x="-565" y="-446" width="120" height="80" as="geometry" />
        </mxCell>
        <mxCell id="qGiuJrbiiLy9XwnGjOmM-1" style="edgeStyle=none;curved=1;rounded=0;orthogonalLoop=1;jettySize=auto;html=1;entryX=1;entryY=0;entryDx=0;entryDy=0;fontSize=12;startSize=8;endSize=8;" edge="1" parent="1" source="Z7bvLgFg-vR1_hrqvqj--1" target="k-XJiA40x20d2hjay5rg-1">
          <mxGeometry relative="1" as="geometry" />
        </mxCell>
        <mxCell id="Z7bvLgFg-vR1_hrqvqj--1" value="StudySatisfaction" style="ellipse;whiteSpace=wrap;html=1;" vertex="1" parent="1">
          <mxGeometry x="-388" y="-446" width="120" height="80" as="geometry" />
        </mxCell>
        <mxCell id="wzIFcH1Ejrc5vpYkv77M-2" style="edgeStyle=none;curved=1;rounded=0;orthogonalLoop=1;jettySize=auto;html=1;entryX=0;entryY=0;entryDx=0;entryDy=0;fontSize=12;startSize=8;endSize=8;" edge="1" parent="1" source="9cPAKN-D0I-eIag8tM46-1" target="k-XJiA40x20d2hjay5rg-1">
          <mxGeometry relative="1" as="geometry" />
        </mxCell>
        <mxCell id="9cPAKN-D0I-eIag8tM46-1" value="EducationLevel" style="ellipse;whiteSpace=wrap;html=1;" vertex="1" parent="1">
          <mxGeometry x="-742" y="-446" width="120" height="80" as="geometry" />
        </mxCell>
        <mxCell id="wzIFcH1Ejrc5vpYkv77M-3" style="edgeStyle=none;curved=1;rounded=0;orthogonalLoop=1;jettySize=auto;html=1;entryX=0;entryY=0.5;entryDx=0;entryDy=0;fontSize=12;startSize=8;endSize=8;" edge="1" parent="1" source="wzIFcH1Ejrc5vpYkv77M-1" target="k-XJiA40x20d2hjay5rg-1">
          <mxGeometry relative="1" as="geometry" />
        </mxCell>
        <mxCell id="wzIFcH1Ejrc5vpYkv77M-1" value="EducationCategory" style="ellipse;whiteSpace=wrap;html=1;" vertex="1" parent="1">
          <mxGeometry x="-919" y="-446" width="120" height="80" as="geometry" />
        </mxCell>
        <mxCell id="GBL2whJBHdj1C60OYlgL-2" style="edgeStyle=none;curved=1;rounded=0;orthogonalLoop=1;jettySize=auto;html=1;fontSize=12;startSize=8;endSize=8;" edge="1" parent="1" source="GBL2whJBHdj1C60OYlgL-1" target="syIouRMHXwiDmhJBbLLR-1">
          <mxGeometry relative="1" as="geometry" />
        </mxCell>
        <mxCell id="GBL2whJBHdj1C60OYlgL-1" value="Regions" style="ellipse;whiteSpace=wrap;html=1;" vertex="1" parent="1">
          <mxGeometry x="71" y="-648" width="120" height="80" as="geometry" />
        </mxCell>
        <mxCell id="4BvWuHmgGthvBxXCvbnV-2" style="edgeStyle=none;curved=1;rounded=0;orthogonalLoop=1;jettySize=auto;html=1;fontSize=12;startSize=8;endSize=8;" edge="1" parent="1" source="4BvWuHmgGthvBxXCvbnV-1" target="syIouRMHXwiDmhJBbLLR-1">
          <mxGeometry relative="1" as="geometry" />
        </mxCell>
        <mxCell id="GXsP5ZIlZGnPQ4NGN8no-3" style="edgeStyle=none;curved=1;rounded=0;orthogonalLoop=1;jettySize=auto;html=1;fontSize=12;startSize=8;endSize=8;flowAnimation=0;" edge="1" parent="1" source="4BvWuHmgGthvBxXCvbnV-1" target="eZCal6oqM1fCCTEyqUuY-1">
          <mxGeometry relative="1" as="geometry" />
        </mxCell>
        <mxCell id="4BvWuHmgGthvBxXCvbnV-1" value="Gender" style="ellipse;whiteSpace=wrap;html=1;" vertex="1" parent="1">
          <mxGeometry x="-98" y="-648" width="120" height="80" as="geometry" />
        </mxCell>
        <mxCell id="GXsP5ZIlZGnPQ4NGN8no-2" style="edgeStyle=none;curved=1;rounded=0;orthogonalLoop=1;jettySize=auto;html=1;fontSize=12;startSize=8;endSize=8;" edge="1" parent="1" source="GXsP5ZIlZGnPQ4NGN8no-1" target="eZCal6oqM1fCCTEyqUuY-1">
          <mxGeometry relative="1" as="geometry" />
        </mxCell>
        <mxCell id="GXsP5ZIlZGnPQ4NGN8no-1" value="Age" style="ellipse;whiteSpace=wrap;html=1;" vertex="1" parent="1">
          <mxGeometry x="240" y="-648" width="120" height="80" as="geometry" />
        </mxCell>
        <UserObject label="Link" link="https://web.archive.org/web/20201101105510/https://www.who.int/mental_health/prevention/genderwomen/en/" linkTarget="_blank" id="GXsP5ZIlZGnPQ4NGN8no-5">
          <mxCell style="text;html=1;strokeColor=none;fillColor=none;whiteSpace=wrap;align=center;verticalAlign=middle;fontColor=#0000EE;fontStyle=4;" vertex="1" parent="1">
            <mxGeometry x="43" y="-271" width="60" height="40" as="geometry" />
          </mxCell>
        </UserObject>
      </root>
    </mxGraphModel>
  </diagram>
</mxfile>
